<?xml version="1.0" encoding="UTF-8" standalone="no"?>
<!DOCTYPE svg PUBLIC "-//W3C//DTD SVG 1.1//EN" "http://www.w3.org/Graphics/SVG/1.1/DTD/svg11.dtd">
<svg width="100%" height="100%" viewBox="0 0 1280 330" version="1.1" xmlns="http://www.w3.org/2000/svg" xmlns:xlink="http://www.w3.org/1999/xlink" xml:space="preserve" xmlns:serif="http://www.serif.com/" style="fill-rule:evenodd;clip-rule:evenodd;stroke-linejoin:round;stroke-miterlimit:2;">
    <g transform="matrix(1,0,0,1,-717.933,-2813.89)">
        <g transform="matrix(1,0,0,1,0,420)">
            <path d="M1780.83,2403.79C1713.34,2403.79 1713.78,2409.01 1646.48,2407.08C1505.57,2403.02 1496.25,2401.39 1483.38,2399.14C1393.48,2383.43 1307.79,2408.83 1226.22,2400.15C1219.69,2399.45 943.863,2392.59 940.382,2399.43C939.978,2400.22 877.184,2408.05 871.681,2408.74C851.348,2411.28 783.167,2401.18 768.176,2418.82C751.402,2438.55 745.753,2435.32 740.121,2460.85C734.405,2486.76 747.535,2488.5 736.383,2512.65C734.376,2517 722.413,2542.91 718.116,2569.67C716.707,2578.45 723.885,2596.92 724.165,2602.87C725.383,2628.69 721.21,2629.63 732.835,2652.88C735.69,2658.59 723.223,2685.35 746.507,2697.44C809.934,2730.38 813.157,2718.16 884.457,2721.28C904.506,2722.16 1070.38,2723.01 1071.75,2722.93C1095.18,2721.57 1093.8,2712.39 1138.86,2711.64C1189.07,2710.8 1219.45,2714.2 1230.96,2710.87C1278.74,2697.03 1279.86,2719.2 1389.21,2711.61C1464.79,2706.36 1464.4,2730.49 1539.51,2719.79C1551.52,2718.08 1634.5,2718.39 1637.52,2717.05C1670.7,2702.28 1701.59,2724.24 1780.25,2715.9C1796.09,2714.22 1877.14,2716.63 1880.09,2717.18C1882.86,2717.7 1923.75,2683.64 1927.43,2680.58C1930.98,2677.62 1938.68,2659.19 1959.49,2652.78C1982.31,2645.75 1974.77,2636.43 1992.47,2620.66C2007.25,2607.49 1986.57,2604.3 1988.16,2565.13C1989.54,2531.18 1982.46,2531.61 1985.78,2488.02C1986.34,2480.61 1981.85,2453.28 1976.85,2444.59C1968.96,2430.87 1964.67,2433.06 1961.01,2432.25L1962.52,2421.99C1947.13,2408.8 1941.07,2389.26 1882.96,2397.1C1801.44,2408.09 1801.19,2402.81 1790.51,2401.74C1781.84,2400.88 1782.67,2403.08 1780.83,2403.79Z" style="fill:white;"/>
            <path d="M1780.83,2403.79C1782.67,2403.08 1781.84,2400.88 1790.51,2401.74C1801.19,2402.81 1801.44,2408.09 1882.96,2397.1C1941.07,2389.26 1947.13,2408.8 1962.52,2421.99L1961.01,2432.25C1964.67,2433.06 1968.96,2430.87 1976.85,2444.59C1981.85,2453.28 1986.34,2480.61 1985.78,2488.02C1982.46,2531.61 1989.54,2531.18 1988.16,2565.13C1986.57,2604.3 2007.25,2607.49 1992.47,2620.66C1974.77,2636.43 1982.31,2645.75 1959.49,2652.78C1938.68,2659.19 1930.98,2677.62 1927.43,2680.58C1923.75,2683.64 1882.86,2717.7 1880.09,2717.18C1877.14,2716.63 1796.09,2714.22 1780.25,2715.9C1701.59,2724.24 1670.7,2702.28 1637.52,2717.05C1634.5,2718.39 1551.52,2718.08 1539.51,2719.79C1464.4,2730.49 1464.79,2706.36 1389.21,2711.61C1279.86,2719.2 1278.74,2697.03 1230.96,2710.87C1219.45,2714.2 1189.07,2710.8 1138.86,2711.64C1093.8,2712.39 1095.18,2721.57 1071.75,2722.93C1070.38,2723.01 904.506,2722.16 884.457,2721.28C813.157,2718.16 809.934,2730.38 746.507,2697.44C723.223,2685.35 735.69,2658.59 732.835,2652.88C721.21,2629.63 725.383,2628.69 724.165,2602.87C723.885,2596.92 716.707,2578.45 718.116,2569.67C722.413,2542.91 734.376,2517 736.383,2512.65C747.535,2488.5 734.405,2486.76 740.121,2460.85C745.753,2435.32 751.402,2438.55 768.176,2418.82C783.167,2401.18 851.348,2411.28 871.681,2408.74C877.184,2408.05 939.978,2400.22 940.382,2399.43C943.863,2392.59 1219.69,2399.45 1226.22,2400.15C1307.79,2408.83 1393.48,2383.43 1483.38,2399.14C1496.25,2401.39 1505.57,2403.02 1646.48,2407.08C1713.78,2409.01 1713.34,2403.79 1780.83,2403.79ZM1792.29,2423.14C1792.47,2423.08 1792.62,2423.03 1792.73,2422.97C1794.77,2422.04 1796.19,2421.01 1797.39,2419.94L1792.29,2423.14ZM960.429,2410.36C960.602,2410.16 960.731,2409.97 960.808,2409.82L960.429,2410.36ZM740.882,2572.46C741.111,2573.65 742.586,2581.25 743.647,2585.22C745.516,2592.2 746.899,2598.44 747.057,2601.79C748.048,2622.81 743.868,2623.7 753.332,2642.63L755.864,2650.77L755.928,2660.76C755.666,2663.47 755.109,2666.89 754.951,2670.58C754.861,2672.7 754.219,2675.62 757.07,2677.1C816.032,2707.73 819.177,2695.49 885.458,2698.38C905.258,2699.25 1069.07,2700.13 1070.42,2700.06C1079.64,2699.52 1083.91,2697.19 1090.38,2695.18C1099.87,2692.22 1112.45,2689.16 1138.48,2688.72C1168.88,2688.22 1192.08,2689.24 1208.28,2689.42C1215.88,2689.51 1221.32,2689.8 1224.59,2688.86C1247.64,2682.18 1261.68,2682.46 1278.68,2684.6C1298.99,2687.16 1324.59,2693.12 1387.62,2688.74C1428.63,2685.9 1449.03,2690.96 1469.36,2695.34C1486.09,2698.95 1502.76,2701.88 1536.28,2697.1C1547.05,2695.57 1613.86,2695.49 1631.84,2694.59C1647.53,2688.48 1663.02,2688.02 1681.7,2689.86C1704.22,2692.09 1732.82,2697.89 1777.84,2693.11C1791.33,2691.68 1849.2,2693.14 1873.53,2694.09C1882.02,2687.38 1904.59,2669.54 1911.14,2664.28C1914.47,2659.47 1930.49,2637.73 1952.74,2630.88C1960.07,2628.62 1959.91,2625.15 1962.34,2621.21C1964.79,2617.22 1967.87,2612.84 1972.57,2607.99C1969.37,2599.57 1964.49,2583.37 1965.27,2564.2C1966.66,2529.89 1959.57,2530.33 1962.92,2486.28C1963.32,2481.12 1960.46,2462.06 1956.98,2456.01C1956.73,2455.57 1956.43,2455.1 1956.14,2454.64L1956.07,2454.63C1944.77,2452.14 1937.18,2441.64 1938.18,2430.26C1937.49,2429.55 1936.79,2428.85 1936.08,2428.15C1933.12,2425.21 1929.87,2422.22 1924.46,2420.44C1916.16,2417.7 1904.37,2417.33 1886.02,2419.81C1803.85,2430.89 1799.75,2426.18 1789.76,2424.73L1789.05,2425.18C1786.43,2426.19 1783.64,2426.7 1780.83,2426.7C1713.01,2426.7 1713.45,2431.93 1645.82,2429.98C1502.07,2425.84 1492.57,2424.01 1479.44,2421.71C1390.06,2406.09 1304.88,2431.56 1223.8,2422.93C1218.01,2422.32 997.474,2416.8 950.925,2420.61C949.307,2420.74 947.116,2421.03 947.116,2421.03L947.458,2420.78L942.485,2422.43C931.789,2424.32 879.554,2430.85 874.516,2431.48C861.99,2433.04 831.776,2430.1 806.285,2431.27C798.235,2431.64 786.727,2434.28 784.688,2434.76C779.431,2440.85 775.177,2444.94 771.619,2448.34C766.988,2452.77 764.85,2455.13 762.5,2465.78C759.878,2477.67 763.042,2482.88 763.672,2489.16C764.527,2497.67 764.131,2507.22 757.19,2522.26C755.413,2526.11 744.845,2548.79 740.882,2572.46Z" style="fill:white;"/>
        </g>
        <g transform="matrix(1,0,0,1,-803.907,186.286)">
            <g>
                <path d="M1649.97,2787.64C1654.13,2776.59 1656.64,2764.66 1670.48,2764.81C1676.46,2756.55 1686.52,2767.24 1700.51,2760.16C1712.4,2754.14 1708.07,2740.99 1707.52,2739.32C1693.92,2738.44 1694.13,2738.6 1680.61,2738.08C1676.67,2730.83 1674.7,2733.78 1666.53,2734.53C1666.19,2734.56 1664.62,2733.29 1663.28,2740.22C1661.29,2738.69 1660.1,2738.85 1661.52,2735.47C1662.36,2733.47 1648.61,2732.52 1636.67,2742.2C1624.72,2751.9 1618.79,2761.05 1614.34,2780.56C1611.75,2791.91 1601.73,2813.8 1603.22,2822.99C1606.65,2844.26 1604.68,2848.28 1625.11,2855.51C1628.25,2856.62 1652.33,2865.14 1666.65,2856.17C1668.72,2854.87 1704.23,2858.18 1711.37,2840.23C1711.85,2839.04 1711.28,2827.78 1703.94,2830.2C1687.63,2835.59 1686.16,2825.7 1658.77,2834.69C1652.27,2836.83 1650.3,2830.49 1647.05,2829.14C1644.97,2828.27 1638.07,2825.41 1642.33,2801.33C1643.12,2796.9 1643.57,2797.07 1647.5,2795.08C1648.47,2794.59 1651.43,2788.55 1649.97,2787.64Z"/>
                <path d="M1768.35,2732.06C1776.91,2722.03 1835.58,2741.86 1837.25,2773.46C1837.43,2776.94 1837.72,2782.27 1833.38,2816.88C1819.72,2827.22 1818.83,2833.97 1817.27,2837.85C1799.16,2844.95 1800.75,2847.71 1786.42,2853.66C1772.46,2859.45 1762.34,2853.43 1751.47,2849.09C1721.02,2836.94 1729.55,2788.33 1734.07,2787.83C1741.43,2787.02 1742.48,2776.5 1741.09,2775.66C1736.03,2772.63 1741.38,2767.36 1741.96,2764.5C1744.31,2752.88 1756.54,2759.16 1768.35,2732.06ZM1781.71,2753.3C1775.35,2768.29 1777.12,2768.82 1770.51,2783.78C1769.2,2786.73 1761.87,2789.27 1762.48,2796.43C1763.5,2808.29 1759.61,2832.76 1771.47,2827.69C1773.94,2826.63 1786.8,2829.86 1793.77,2818.67C1796.97,2813.53 1795.17,2808.27 1803.12,2794.7C1803.02,2795.34 1798.34,2812.13 1805.07,2805.3C1810.8,2799.49 1804.6,2791.82 1802.28,2785.79L1806.33,2783.49L1807.46,2788.9C1808.7,2782.69 1810.72,2780.84 1804.73,2778.67L1808.74,2777.31C1806.09,2768.87 1805.17,2768.59 1804.81,2769.22C1804.67,2769.46 1804.46,2769.69 1804.43,2769.97C1804.03,2773.58 1803.03,2773.08 1801.6,2776.28C1802.86,2767 1798.42,2768.44 1794.39,2760.06C1792.65,2756.45 1782.47,2752.07 1781.71,2753.3Z"/>
                <g transform="matrix(0.816835,-0.117486,0.124858,0.868088,15.7006,598.826)">
                    <path d="M1882.71,2836.3C1882.95,2837.97 1880.93,2840.95 1881.29,2846.51C1884.08,2889.5 1845.75,2859.57 1846.98,2849.67C1847.24,2847.57 1848.71,2846.74 1848.34,2839.29C1848.1,2834.26 1847.78,2834.46 1848.71,2829.61C1848.91,2830.18 1850.19,2833.72 1851.47,2836.64C1852.32,2831.73 1849.33,2778.02 1851.6,2770.94C1852.82,2767.12 1862.67,2753.61 1852.86,2715.81C1868.37,2715.24 1868.59,2713.4 1876.49,2716.67C1877.08,2716.92 1876.48,2717.38 1882.03,2722.37C1881.7,2720.27 1881.37,2718.17 1881.04,2716.08C1886.33,2719.41 1887.33,2718.47 1889.76,2724.14C1891.7,2728.68 1896.3,2723.9 1897.09,2728.66C1901.35,2754.05 1915.78,2756.66 1920.26,2768.37C1924.31,2778.93 1927.07,2793.06 1940.32,2805.51C1941.94,2798.78 1940.23,2798.58 1942.95,2792.01C1947.53,2780.92 1945.17,2777.33 1947,2759.84C1948.24,2747.97 1954.45,2748.4 1954.69,2752.61C1954.88,2752.05 1957.04,2745.68 1957.04,2745.68C1956.41,2741.01 1953.49,2743.48 1953.1,2743.23C1952.59,2725.94 1961,2707.25 1964.11,2699.18C1971.31,2680.51 1981.69,2689.16 2000.28,2699.69C2009.41,2704.86 1995.2,2705.86 1988.43,2734.69C1985.73,2746.18 1977.07,2755.38 1984.01,2756.08C1984.43,2756.12 1984.54,2764.17 1979.43,2765.52C1973.67,2767.05 1975.17,2776.12 1975.33,2777.09C1979.92,2771.28 1979.97,2771.66 1984.38,2766.04C1985.53,2769.28 1986.37,2769.64 1980.02,2780.4C1980.43,2781.37 1982.49,2780.75 1982.91,2781.72C1982.93,2781.77 1982.01,2786.94 1981.07,2787.41C1980.65,2787.61 1980.76,2787.56 1975.69,2785.04C1978.96,2794.84 1991.79,2792.85 1984.63,2797.77C1983.92,2798.26 1984,2797.92 1975.77,2792.87C1974.36,2802.29 1981.43,2798.74 1982.6,2802.58C1985.8,2813 1979.72,2817.15 1979.33,2820.86C1977.2,2841.04 1984.68,2849.47 1964.66,2852.15C1952.4,2853.78 1947.03,2857.22 1944.28,2841.24C1942.39,2830.26 1938.53,2831.53 1936.36,2817.42C1940.22,2829.92 1940.05,2829.9 1939.02,2832.55C1938.28,2834.45 1940.07,2843.28 1940.26,2844.19C1932.08,2843.89 1935.13,2839.41 1927.36,2831.38C1902.79,2806 1915.31,2796.72 1888.65,2773.15C1888.86,2775.26 1891,2797.17 1890.82,2799.62C1890.29,2806.96 1887.76,2806.13 1886.31,2813.24C1883.96,2824.85 1881.09,2824.41 1882.71,2836.3Z"/>
                </g>
                <g transform="matrix(1,0,0,1,7.20472,-3.48539)">
                    <path d="M2070.41,2713.29C2040.92,2717.31 2005.87,2714.92 2004.08,2727.28C2003.84,2728.95 2013.63,2742.96 2014.45,2743.14C2026.31,2745.72 2027.82,2741.54 2031.11,2741.38C2044.12,2740.75 2055.59,2741.17 2057.72,2741.24C2053.3,2755.54 2053.28,2755.35 2049.87,2769.83C2049.18,2772.76 2049.73,2772.62 2048.13,2807.42C2048.43,2807.71 2052.05,2807.41 2050.29,2812.32C2048.95,2816.08 2048.37,2817.35 2047,2817.04C2040.41,2815.56 2048.52,2843.76 2042.18,2846.39C2035.5,2849.16 2038.01,2851.04 2038.42,2858.26C2026.23,2862.82 2035.65,2867.96 2042.77,2877.39C2046.59,2882.46 2052.82,2884.13 2055.08,2880.46C2056.5,2878.15 2061.06,2880.9 2062.54,2881.43L2064.11,2880.03C2067.38,2881.33 2070.66,2882.63 2073.94,2883.93C2072.71,2876.7 2072.17,2872.35 2078.91,2875.17C2082.33,2876.59 2092.99,2865.34 2083.41,2858.57C2068.62,2848.14 2090.25,2858.16 2090.66,2856.5C2092.7,2848.2 2086.72,2847.06 2087.75,2836.51C2087.9,2835.05 2087.74,2835.17 2087.1,2831.57C2086.31,2827.09 2088.77,2828.42 2092.37,2825.92C2090.78,2813.21 2090.56,2801.84 2090.52,2799.74C2076.48,2799.85 2091.79,2796.21 2092.1,2796.18C2093.75,2796.01 2092.45,2795.12 2092.45,2773.24C2092.45,2762.88 2087.31,2760.87 2095.52,2754.42C2096.88,2738.47 2094.39,2735.23 2100.31,2735.46C2115.21,2736.03 2114.58,2732.02 2129.55,2731.36C2137.32,2723.73 2141.5,2724.26 2138.17,2713.78C2135.61,2705.73 2091.88,2714.82 2089.53,2715.22C2088.39,2715.41 2084.77,2716.02 2075.03,2715.21C2072.47,2714.99 2073.16,2713.5 2070.41,2713.29Z"/>
                </g>
                <g transform="matrix(1,0,0,0.771064,-11.2026,658.095)">
                    <path d="M2191.81,2736.86C2181.49,2766.55 2196.44,2768.61 2186.95,2798.6C2184.29,2807.02 2182.17,2843.61 2171.08,2841.07C2159.41,2838.4 2144.95,2847.63 2157.71,2864.16C2163.16,2871.22 2164.05,2862.94 2172.8,2861.42C2176.56,2860.76 2208.74,2857.51 2227.74,2861.98C2238.32,2840.22 2223.87,2842.04 2219.52,2831.17C2218.43,2828.46 2213.51,2832.41 2213.1,2832.74C2212.24,2829.46 2207.07,2820.77 2219.61,2825.1C2220.03,2810.18 2219.67,2809.93 2218.63,2809.19C2218.25,2808.91 2214.58,2806.29 2222.12,2804.4C2221.89,2783.01 2226.77,2782 2222.6,2768.76C2219.55,2759.08 2222.17,2759.13 2226.4,2749.89C2230.14,2741.72 2224.34,2741.13 2226.79,2732.51C2229.29,2732.14 2238.07,2730.83 2258.15,2729.04C2271,2691.74 2189.28,2726.76 2169.12,2714.75C2163.76,2711.55 2165.99,2727.86 2167.93,2727.99C2172.08,2728.27 2178.6,2734.95 2191.81,2736.86Z"/>
                </g>
                <g transform="matrix(1,0,0,1,-10,40)">
                    <path d="M2228.77,2668.07C2224.75,2662.71 2223.48,2659.04 2216.56,2661.3C2212.9,2662.5 2212.34,2659.57 2206.64,2662.62C2197.62,2667.46 2202.67,2669.97 2203.27,2670.26C2206.9,2672.07 2194.51,2682.93 2202.9,2688.99C2206.51,2691.6 2205.21,2695.7 2210.49,2693.37C2223.78,2687.51 2233.98,2697.57 2232.61,2683.18C2231.62,2672.71 2225.8,2671.03 2228.77,2668.07Z"/>
                </g>
                <g transform="matrix(1,0,0,1,-4,0)">
                    <path d="M2291.02,2728.4C2289.08,2719.56 2282.86,2717.88 2286.89,2716.06C2287.52,2715.78 2304.53,2713.53 2304.64,2713.57C2321.12,2719.43 2328.6,2721.99 2330.69,2722.71C2330.91,2722.78 2328.46,2721.95 2329.47,2725.3C2334.51,2742.08 2334.29,2753.72 2335.55,2758.45C2338.54,2769.66 2336.9,2769.75 2334.69,2774.9C2338.64,2776.72 2338.6,2776.57 2341.81,2779.32C2341.99,2772.8 2340.89,2773.12 2339.11,2766.88C2338.91,2766.16 2338.82,2765.86 2340.42,2757.66C2346.52,2766.22 2343.69,2767.87 2347.98,2772.15C2356.52,2780.69 2354.78,2781.91 2361.75,2791.66C2362.92,2793.3 2360.97,2799.11 2370.38,2804.08C2370.77,2785.49 2372.61,2783.6 2370.73,2779.86C2368.32,2775.03 2375.05,2759.28 2379.61,2754.53C2385.52,2748.37 2383.53,2743.09 2382.73,2742.29C2381.53,2741.09 2385.39,2739.66 2376.03,2722.12C2373.4,2717.19 2373.53,2714.85 2375.7,2695.63C2375.74,2695.22 2386.72,2688.16 2388.2,2688.03C2393.79,2687.51 2401.86,2690.62 2402.3,2694.6C2403.98,2709.62 2413.6,2720.31 2410.66,2728.07C2410.3,2729 2413.94,2734.02 2413.57,2741.84C2413.23,2749.23 2418.55,2749.21 2414.78,2760.6C2412.9,2766.25 2412.97,2766.12 2412.8,2766.6C2412.18,2768.42 2411.54,2767.59 2404.91,2768.24C2405.63,2766.54 2406.35,2764.85 2407.07,2763.16C2402.23,2777.82 2409.73,2776.02 2410.44,2775.3C2413.03,2772.67 2412.28,2781.8 2412.27,2781.82C2409.63,2787.05 2411.56,2787.34 2411.9,2797.45C2407.16,2802.47 2409.93,2803.22 2411.84,2809.95C2412.25,2807.97 2412.66,2805.99 2413.07,2804.01C2415.3,2815.03 2419.84,2827.92 2410.85,2821.21C2410.35,2825.41 2409.58,2827.3 2413.68,2826.75C2413.75,2826.74 2414.74,2825.07 2414.94,2826.49C2415.54,2830.69 2407.5,2840.05 2413.24,2842.91C2414.25,2843.41 2411.24,2848.34 2409.73,2848.64C2404.78,2849.61 2400.5,2854.86 2395.93,2855.57C2386.27,2857.08 2381.67,2864.33 2377.04,2855.08C2371.08,2843.15 2363.98,2848.44 2359.76,2835.83C2359.02,2833.64 2358.12,2834.18 2344.01,2811.62C2340.74,2806.38 2338.37,2808.32 2333.43,2798.47C2330.79,2793.21 2322.57,2788.06 2317.34,2777.09C2313.77,2781.18 2311.16,2781.65 2314.8,2785.74C2316.28,2787.4 2321.98,2789.78 2318.4,2800.44C2316.87,2804.98 2311.31,2803.51 2312.61,2819.17C2312.86,2822.2 2311.08,2821.97 2306.96,2856.72C2306.09,2864.09 2308.78,2870.2 2291.92,2869.75C2291.58,2869.74 2277.89,2857.31 2277.76,2852.57C2277.55,2844.65 2277.8,2844.73 2280.14,2837.23C2281.5,2832.9 2275.85,2807.24 2282.64,2790.42C2285.55,2783.21 2284.42,2783.02 2284.47,2779.51C2285.73,2782.03 2286.95,2784.61 2287.16,2785.05C2288.78,2780.89 2288.31,2780.77 2286.5,2776.6L2282.29,2778.73C2280.5,2782.33 2280.5,2785.51 2279.01,2782.71C2275.05,2775.26 2286.6,2774.7 2283.52,2770.09C2283.36,2769.84 2281.54,2770.76 2281.35,2769.18C2280.65,2763.64 2285.06,2769.84 2286.01,2768.64C2288.05,2766.04 2287.29,2765.79 2286.3,2762.7C2288.42,2760.87 2288.93,2760.73 2287.71,2758.3C2287.51,2757.89 2286.7,2757.07 2283.38,2761.84C2281.93,2752.66 2283.65,2752.59 2281.83,2743.47C2281.12,2739.93 2281.8,2736.32 2285.82,2726.29C2286.92,2730.92 2286.36,2734.22 2290.34,2731.52C2291.07,2731.03 2293.27,2729.13 2291.02,2728.4Z"/>
                </g>
                <path d="M2442.54,2742.23C2440.73,2726.14 2443.9,2726.07 2441.25,2710.16C2440.84,2707.69 2438.81,2695.52 2471.07,2700.87C2473.41,2701.26 2490.07,2706.61 2481.26,2713.54C2481.26,2713.54 2479.64,2715.99 2479.5,2716.21C2485.55,2721.12 2482.11,2722.6 2482.83,2743.76C2483.19,2754.14 2480.39,2753.7 2480,2764.08C2479.71,2772.02 2478.26,2771.87 2479.12,2779.83C2479.95,2787.57 2476.31,2811.31 2478.76,2817.91C2479.5,2819.91 2479.37,2828.84 2482.73,2829.76C2501.93,2835.01 2502.57,2836 2511.57,2831.21C2512.66,2830.63 2522.25,2825.53 2523.68,2821.56C2531.8,2799.05 2521.77,2776.83 2532.26,2775.31C2533.93,2775.07 2532.2,2769.11 2532.05,2768.59C2530.24,2770.66 2530.23,2770.45 2528.7,2772.82C2528.39,2766.38 2526.44,2767.26 2526.1,2767.59C2522.9,2770.73 2527.93,2756.83 2524.05,2745.43C2522.27,2740.23 2524.13,2738.42 2524.21,2737.01C2524.32,2735.29 2524.74,2734.96 2518.03,2726.64C2524.08,2721.45 2524.05,2721.13 2531.85,2720.21C2537.01,2719.6 2536.68,2718.66 2537.12,2718.65C2537.99,2718.63 2553.53,2715.94 2557.1,2725.7C2557.64,2727.2 2556.54,2727.45 2561.75,2745.13C2564.57,2754.68 2567.5,2754.28 2566.17,2771.55C2563.92,2800.64 2552.66,2835.82 2549.28,2838.8C2539.62,2847.33 2543.46,2854.57 2522.39,2856.7C2488.98,2860.08 2475.32,2853.41 2471.65,2851.62C2462.93,2847.36 2459.83,2852.42 2454.81,2844.05C2451.34,2838.26 2451.69,2838.15 2447.82,2832.67C2439.33,2820.63 2444.16,2814.62 2440.92,2800.58C2438.92,2791.89 2442.85,2783.38 2440.91,2771.58C2440.34,2768.15 2442.92,2767.16 2440.6,2752.61C2440.19,2750.05 2442.61,2743.05 2442.54,2742.23Z"/>
                <path d="M2643.04,2714.38C2618.33,2716.22 2618.24,2713.98 2593.87,2718.11C2586.97,2719.28 2591.45,2722.31 2592.23,2729.22C2595.76,2731.57 2607.65,2734.1 2599.47,2750.96C2598.43,2753.1 2598.86,2753.24 2590.17,2779.07C2589.39,2781.37 2581.04,2791.47 2588.32,2792.93C2594.17,2794.1 2591.66,2778.33 2594.48,2771.34C2601.63,2782.48 2594.94,2785.35 2595.69,2789.19C2596.34,2792.58 2596.67,2793.86 2585.12,2800.22C2586.13,2800.63 2590.45,2802.28 2590.48,2802.3C2594.76,2805.72 2591.78,2807.2 2586.41,2808.37C2580.59,2804.72 2584.48,2817.28 2584.71,2818.03C2580.77,2823.02 2583.48,2824.55 2579.03,2828.95C2577.64,2830.31 2577.29,2840.7 2579.57,2842.61C2582.69,2845.22 2585.77,2848.76 2586.27,2849.33C2586.28,2849.34 2593.95,2854.69 2596.94,2851.66C2597.85,2850.75 2600.04,2843.74 2604.79,2848.49C2606.28,2849.98 2603.67,2852.36 2608.98,2853.85C2609.64,2854.03 2609.64,2853.98 2625.49,2855.41C2625.69,2855.17 2623.96,2852.07 2633.03,2851.85C2688.51,2850.54 2688.62,2850.49 2692.9,2848.33C2697.59,2845.96 2703.99,2834.8 2704.74,2833.48C2701.04,2832.26 2700.92,2833.18 2656.03,2834C2637.45,2834.34 2632,2836.8 2626.84,2833.67C2620.95,2830.09 2619.82,2831.09 2616.94,2824.69L2614.3,2824.21C2617.81,2806.99 2612.36,2801.66 2628.93,2796.13C2658.62,2786.21 2661.89,2797.04 2669.96,2791.6C2674.6,2788.46 2687.3,2784.09 2680.9,2773.72C2678.87,2774.08 2678.81,2773.54 2655.4,2777.61C2644.18,2779.56 2629.16,2778.22 2626.89,2778.02C2628.43,2773.14 2629.14,2773.48 2633.83,2760.95C2637.36,2751.51 2635.34,2751.26 2636.63,2741.23C2645.85,2736.76 2646.71,2739.47 2655.88,2735.04C2667.91,2729.22 2688.49,2728.18 2691.38,2728.04C2703.25,2727.44 2705.8,2718.81 2697.53,2712.24C2697.43,2712.16 2693.08,2696.76 2683.61,2706.07C2674.88,2714.65 2666.25,2708.3 2651.47,2714.05C2647.1,2715.74 2642.94,2716.32 2640.51,2716.98C2641.38,2715.88 2640.95,2715.65 2643.04,2714.38Z"/>
            </g>
        </g>
    </g>
</svg>
