<?xml version="1.0" encoding="UTF-8" standalone="no"?>
<!DOCTYPE svg PUBLIC "-//W3C//DTD SVG 1.1//EN" "http://www.w3.org/Graphics/SVG/1.1/DTD/svg11.dtd">
<svg width="100%" height="100%" viewBox="0 0 225 246" version="1.1" xmlns="http://www.w3.org/2000/svg" xmlns:xlink="http://www.w3.org/1999/xlink" xml:space="preserve" xmlns:serif="http://www.serif.com/" style="fill-rule:evenodd;clip-rule:evenodd;stroke-linejoin:round;stroke-miterlimit:2;">
    <g transform="matrix(1,0,0,1,-1837.5,-317.145)" fill="#ccc">
        <g transform="matrix(1.63798,0,0,1.1453,-1254.42,-61.8154)">
            <path d="M2003.66,428.886L2025,428.886L2025,545.112L1887.64,545.112L1887.64,428.886L1908.92,428.886C1908.89,419.507 1908.87,409.185 1908.87,398.622C1908.87,361.236 1930.1,330.884 1956.24,330.884C1982.38,330.884 2003.6,361.236 2003.6,398.622C2003.6,409.152 2003.63,419.484 2003.66,428.886ZM1960.89,497.325C1965.92,494.664 1969.51,487.74 1969.51,479.627C1969.51,469.216 1963.6,460.764 1956.32,460.764C1949.04,460.764 1943.13,469.216 1943.13,479.627C1943.13,487.7 1946.68,494.596 1951.67,497.285L1951.67,512.369L1960.89,512.369L1960.89,497.325ZM1987.77,428.886C1987.79,420.053 1987.81,409.269 1987.81,398.622C1987.81,373.698 1973.66,353.463 1956.24,353.463C1938.81,353.463 1924.66,373.698 1924.66,398.622C1924.66,409.605 1924.82,420.325 1924.92,428.886L1987.77,428.886Z"/>
        </g>
    </g>
</svg>
