<?xml version="1.0" encoding="UTF-8" standalone="no"?>
<!DOCTYPE svg PUBLIC "-//W3C//DTD SVG 1.1//EN" "http://www.w3.org/Graphics/SVG/1.1/DTD/svg11.dtd">
<svg width="100%" height="100%" viewBox="0 0 1825 500" version="1.1" xmlns="http://www.w3.org/2000/svg" xmlns:xlink="http://www.w3.org/1999/xlink" xml:space="preserve" xmlns:serif="http://www.serif.com/" style="fill-rule:evenodd;clip-rule:evenodd;stroke-linejoin:round;stroke-miterlimit:2;">
    <g transform="matrix(1,0,0,1,-500.842,-1129.92)">
        <g>
            <g transform="matrix(0.993646,-0.112551,0.112551,0.993646,-140.213,82.7383)">
                <path d="M590.038,1327.95C591.775,1331.07 592.728,1333.18 593.002,1333.79C607.831,1366.65 615.113,1363.4 618.351,1375.1C621.896,1387.92 623.139,1387.66 622.637,1388.68C618.744,1396.6 636.699,1401.98 644.783,1424.63C649.342,1437.4 650.215,1437.05 650.049,1438.2C648.657,1447.85 669.261,1457.54 674.369,1475.48C677.16,1461.27 675.043,1455.44 675.812,1451.96C676.056,1450.85 680.07,1439.88 679.852,1435.95C679.789,1434.8 675.102,1432.8 677.751,1428.95C684.547,1419.1 681.305,1385.57 688.043,1361.85C704.945,1356.01 702.457,1341.25 704.057,1333.51C708.063,1314.12 710.579,1295.06 712.347,1287.54C714.613,1277.89 713.239,1277.89 714.426,1267.87C715.898,1255.45 732.59,1223.38 735.041,1220.8C738.189,1217.5 754.444,1215.89 756.708,1217.65C765.459,1224.46 780.912,1223.79 786.154,1241.8C813.93,1251.92 799.212,1263.81 789.768,1280.16C780.929,1295.46 778.099,1311.76 773.858,1319.85C764.417,1321.31 768.576,1336.04 767.716,1337.09C763.891,1341.74 757.825,1338.69 759.491,1348.44C755.84,1348.65 753.67,1348.94 756.006,1351.67C761.515,1358.1 744.736,1357.99 745.904,1362.08C747.4,1367.32 755.182,1358.17 756.95,1364.71C757.683,1367.42 762.026,1360.71 763.459,1361.46C766.651,1363.13 762.011,1368.47 761.469,1371.71C757.892,1373.15 758.586,1373.8 757.845,1377.59C757.028,1381.78 751.847,1376.96 751.563,1381.3C751.435,1383.26 755.106,1392.8 755.64,1393.84C747.564,1393.23 746.798,1393.59 742.399,1386.58C741.002,1388.38 740.845,1388.47 742.003,1390.33C744.174,1393.82 741.163,1394.01 741.79,1397.65C742.709,1402.98 739.42,1400.55 737.35,1400.6C738.4,1405.5 741.887,1408.42 737.338,1407.54C726.866,1405.52 740.048,1411.99 740.45,1412.19L739.99,1415.97C749.601,1408.44 750.712,1410.65 750.941,1411.56C751.806,1415.03 747.473,1417.54 744.237,1420.05C761.197,1419.67 743.273,1427.63 735.981,1429.94C741.619,1431.46 741.605,1431.99 747.937,1429.87C748.319,1429.74 750.77,1428.92 752.908,1429.03C755.296,1429.15 754.587,1430.49 749.364,1458.71C749.049,1460.41 746.002,1476.87 744.955,1479.85C739.662,1494.93 743.423,1495.38 741.238,1514.99C739.622,1529.49 747.17,1528.44 746.799,1542.94C746.686,1547.38 743.856,1547.01 743.154,1548.12C741.119,1551.34 742.228,1553.15 734.821,1554.48L737.083,1559.03C719.278,1557.54 719.508,1559.8 716.864,1561.87C715.652,1561.74 712.15,1561.37 702.174,1557.85C699.704,1558.44 695.548,1562.09 687.072,1556.17C686.067,1555.48 676.945,1552.95 676.055,1552.71C666.77,1550.14 651.352,1531.14 649.528,1525.76C643.385,1507.63 634.147,1495.05 633.048,1492.68C621.446,1484.68 618.513,1474.58 615.058,1471.75C599.501,1459 603.995,1455.02 588.96,1441.42C580.436,1433.72 579.184,1422.44 565.846,1397.08C556.482,1412.6 566.533,1442.1 557.44,1465.51C549.483,1486 553.481,1486.88 547.582,1507.91C546.273,1512.58 551.875,1520.95 552.31,1523.04C553.717,1529.79 546.017,1554.24 544.515,1556.65C545.866,1566.67 547.419,1567.39 534.656,1590.67C533.294,1593.15 526.952,1589.09 526.379,1588.73C526.109,1589.22 527.01,1593.62 522.34,1591.67C514.777,1588.49 515.05,1577.89 511.348,1585.27C507.587,1592.77 488,1578.53 487.708,1569.61C487.526,1564.03 487.723,1562.19 487.211,1559.24C485.616,1557.78 484.694,1555.21 485.099,1551.04C488.177,1519.35 486.311,1519.29 486.645,1516.55C489.195,1495.62 482.069,1484.48 487.58,1474.2C492.269,1465.46 489.999,1464.93 491.911,1455.23C492.746,1450.99 482.377,1451.37 489.678,1402.78C489.884,1401.4 503.071,1373.37 500.471,1366.87C496.844,1357.81 501.349,1357.54 500.478,1350.04C499.655,1342.97 499.266,1343.15 499.237,1342.55C499.15,1340.74 498.581,1328.89 501.738,1319.99C509.966,1296.8 503.594,1296.43 500.452,1277.49C517.713,1277.12 549.498,1278.56 553.25,1280.27C573.022,1289.29 584.719,1324.93 591.141,1326.86L589.862,1327.32C589.909,1327.37 589.972,1327.59 590.038,1327.95Z" style="fill:white;"/>
            </g>
            <g transform="matrix(1,0,0,1,-1.28478,54.1029)">
                <path d="M851.306,1278.37C845.149,1270.32 846.959,1252.05 861.992,1251.92C871.956,1251.83 925.357,1250.92 923.606,1260.15C923.324,1261.64 923.986,1268.81 922.12,1274.24C920.364,1279.34 916.25,1303.62 916.589,1306.27C917.52,1313.55 921.17,1314.8 913.786,1344.66C912.298,1350.68 913.952,1353.24 911.471,1361C906.34,1377.04 911.221,1377.59 908.068,1394.22C905.325,1408.68 904.892,1408.45 899.926,1422.44C899.461,1423.75 900.471,1492.5 901.255,1493.88C908.329,1506.31 912.107,1503.86 917.291,1517.08C920.799,1526.03 920.155,1526.87 928.487,1531.3C931.603,1532.96 960.537,1535.6 971.602,1529.71C977.909,1526.36 978.722,1528.28 984.29,1523.91C989.405,1519.89 1001.38,1525.46 1002.46,1512.4C1002.53,1511.49 1006.64,1508.31 1006.96,1496.64C1007.21,1487.11 1005.1,1486.96 1008.02,1477.91C1008.49,1476.46 1011.49,1467.18 1011.96,1459.36C1012.37,1452.57 1008.98,1453.15 1009.14,1446.38C1009.2,1444.15 1009.57,1444.19 1010.31,1418.62C1010.7,1404.89 1018.15,1407.52 1019.46,1400.94C1023.44,1381 1019.19,1369.84 1016.87,1374.73C1013.3,1382.26 1014.43,1382.59 1010.65,1389.91C1009.38,1387.45 1004.86,1384.2 1009.91,1371.69C1006.98,1366.78 1006.27,1366.69 1008.03,1361.23C1008.65,1359.3 1006.18,1359.49 1007.18,1354.34C1007.93,1350.51 1005.96,1324.31 1005.76,1321.7C1005.21,1314.41 992.325,1296.92 999.299,1294.39C1000.21,1294.06 1016.06,1285.49 1039.33,1288.78C1043.24,1289.33 1054.15,1283.21 1062.42,1311.15C1065.95,1323.08 1071.07,1328.16 1069.7,1337.83C1069.58,1338.65 1076.5,1356.51 1073.66,1378.59C1073.19,1382.23 1073.4,1382.23 1073.85,1453.09C1073.92,1464.35 1072.74,1464.09 1069.84,1474.88C1069.44,1476.34 1070.28,1476.4 1066,1493.37C1063.77,1502.22 1060.2,1500.55 1055.82,1513.42C1051.45,1526.24 1060.19,1533.96 1039.11,1542.13C1038.4,1545.56 1037.68,1548.99 1036.96,1552.42C1030.34,1557 1012.03,1559.82 1010.29,1563.24C1008.19,1567.41 976.753,1576.8 970.365,1574.71C958.811,1570.93 921.189,1574.61 915.27,1568.13C898.724,1564.07 899.946,1561.3 893.418,1558.46C885.443,1555 884.944,1556.6 877.514,1552.17C862.467,1543.21 867.822,1538.49 856.294,1525.15C836.145,1501.83 835.925,1495.88 835.811,1492.82C835.422,1482.31 829.07,1462.04 830.563,1452.18C832.431,1439.84 831.145,1439.91 832.323,1427.41C833.301,1417.03 837.526,1416.88 832.784,1405.28C826.024,1388.73 837.361,1382.11 833.733,1373.28C832.04,1369.15 828.846,1380.38 826.832,1375.95C822.909,1367.32 841.636,1367.71 833.348,1361.75C837.211,1365.58 837.174,1365.42 839.693,1370.41C845.903,1369.74 850.34,1372.38 849.769,1363.16C849.481,1358.51 845.783,1365.45 840.526,1362.03C837.499,1360.07 828.72,1358.48 829.502,1356.11C831.842,1349.01 832.358,1349.36 836.918,1343.35C834.77,1330.45 835.859,1329.83 836.838,1329.27C839.304,1327.88 839.391,1328.38 841.555,1326.75C838.443,1316.44 836.536,1316.48 839.358,1306.13C839.492,1305.64 849.33,1287.03 845.76,1306.3C844.943,1310.71 851.798,1306.67 849.38,1301.84C847.838,1298.77 851.943,1296.36 853.988,1291.68C856.481,1285.98 856.71,1279.19 852.332,1280.1C852.028,1279.67 852.066,1279.68 849.241,1274.42C849.415,1277.19 847.937,1279.65 852.239,1278.69C852.762,1278.57 852.196,1278.16 851.306,1278.37Z" style="fill:white;"/>
            </g>
            <g transform="matrix(0.990374,-0.138416,0.138416,0.990374,-185.684,191.542)">
                <path d="M1118.84,1517.54C1118.23,1528.58 1111.29,1535.01 1121.13,1547.73C1122,1548.85 1122.75,1546.76 1138.43,1551.5C1151.96,1555.58 1151.92,1555.64 1152.86,1555.76C1148.59,1540.37 1157.46,1544.87 1158.24,1545.39C1158.4,1545.5 1158.38,1552.84 1159.31,1553.32C1164.78,1556.13 1174.23,1555.95 1168.78,1550.41C1175.41,1546.77 1174.16,1544.68 1178.26,1537.8C1181.27,1537.52 1184.27,1537.24 1187.28,1536.97C1189.21,1532.26 1192.62,1525.37 1188.64,1523.21C1185.17,1521.33 1184.92,1519.77 1188.42,1517.86C1188.88,1517.6 1189.95,1516.77 1185,1512.21C1185.18,1511.56 1185.01,1511.69 1186.71,1503.99C1180.23,1502.98 1180.21,1503.17 1174.27,1506.35C1172.46,1507.31 1171.23,1501.79 1171.12,1501.33C1180.13,1500.19 1179.94,1501.51 1180.67,1502.09C1180.77,1498.07 1180.8,1498.09 1178.35,1494.93C1178.12,1494.62 1177.9,1493.11 1178.11,1492.73C1179.77,1489.74 1180.07,1492.65 1182.32,1495.07C1186.05,1494.33 1188.27,1495.57 1187.17,1492.55C1186.83,1491.62 1186.23,1490.8 1185.89,1489.88C1185.21,1488.05 1196.45,1454.09 1182.53,1459.44C1177.16,1461.5 1186.58,1471.28 1179.17,1475.45C1174.89,1477.85 1177.07,1467.21 1177.54,1464.03C1178.8,1455.6 1172.54,1455.76 1175.65,1447.72C1175.97,1448.12 1179.68,1452.76 1179.68,1452.76C1179.65,1453.13 1179.23,1458.02 1182.43,1456.51C1187.19,1454.26 1184.11,1452.39 1185.92,1447.43C1188.85,1451.55 1186.49,1469.58 1193.89,1455.28C1194.51,1454.08 1193.33,1449.09 1197.38,1447.93C1197.86,1447.79 1198.99,1440.42 1193.36,1443.62C1193.2,1439.14 1192.35,1438.43 1196.31,1436.25C1197.29,1435.71 1193.4,1426.73 1202.29,1415.88C1205,1412.57 1200.64,1403.64 1204.38,1391.66C1208.59,1378.16 1208.82,1378.29 1210.59,1364.18C1213.45,1375.59 1210.8,1386.3 1212.29,1391.99C1214.57,1400.71 1241.96,1455.48 1242.54,1462.94C1243.7,1478.21 1245.02,1482.58 1252.43,1496.85C1253.43,1498.77 1255.86,1503.46 1279.21,1500.82C1285.6,1489.68 1296.51,1489.12 1299.93,1483.02C1305.88,1472.41 1310.41,1475.44 1313.95,1463.68C1320.95,1440.38 1334.06,1446.67 1338.06,1422.59C1340.22,1409.62 1357.87,1407.96 1366.32,1384.48C1366.79,1395.56 1367.75,1395.36 1367.05,1406.51C1366.3,1418.43 1369.36,1418.39 1367.33,1430.28C1364.6,1446.21 1362.55,1446.3 1366.85,1461.75C1374.85,1490.49 1362.96,1491.13 1366.7,1514.01C1366.8,1514.61 1364.69,1521.16 1365.62,1524.36C1366.47,1527.27 1366.37,1527.1 1367.14,1529.86C1368.53,1534.83 1365.31,1536.24 1367.28,1543.38C1369.08,1549.9 1354.61,1553.23 1358.58,1562.86C1362.86,1573.27 1360.67,1595.56 1376.75,1599.09C1397.08,1603.56 1397.09,1603.08 1406.61,1605.79C1414.24,1603.29 1415.32,1606.98 1421.75,1602.22C1423,1601.3 1437.15,1595.8 1438.51,1595.27C1449.66,1579.04 1460.44,1575.09 1445.17,1549.79C1441.99,1544.53 1443.73,1528.37 1443.57,1526.72C1443.39,1524.98 1440.75,1525.96 1440.7,1525.27C1440.6,1523.82 1447.49,1515.87 1444.92,1512.17C1435.24,1498.25 1434.95,1481.65 1444.38,1470.23C1443.93,1470.08 1436.73,1470.04 1439.2,1462.53C1441.6,1455.23 1425.27,1471.31 1426.15,1460.79C1426.26,1459.42 1431.25,1457.19 1429,1455.87C1426.57,1454.44 1427.35,1454 1425.43,1448.59C1434.15,1448.36 1438.88,1451.33 1437.71,1442.51C1437.48,1440.79 1440.34,1437.74 1435.69,1436.64C1435.21,1436.52 1425.24,1440.24 1432.05,1434.61C1432.91,1431.09 1429.71,1426.96 1434.03,1425.21C1438.29,1423.48 1436.68,1422.12 1435.08,1414.48L1430.23,1417.36C1429.64,1411.36 1430.02,1410.86 1435.4,1408.05C1429.71,1396.87 1434.12,1396.72 1435.25,1393.59C1438.97,1383.28 1430.74,1382.82 1434.31,1349.74C1436.62,1328.3 1439.28,1326.67 1433.3,1322.41C1437.37,1296.22 1424.25,1293.86 1430.33,1277.19C1434.22,1266.51 1418.76,1269.98 1409.56,1259.02C1403.46,1251.76 1388.37,1258.36 1385.22,1263.99C1379.97,1273.35 1373.51,1261.64 1362.5,1270.55C1356.9,1275.07 1348.81,1274.75 1357.14,1291.43C1361.41,1299.99 1355.41,1308.05 1351.69,1315.12C1343.21,1315.05 1342.95,1315.23 1342.72,1314.55C1340.59,1308.26 1342.26,1308.33 1344.31,1302.08C1336.24,1311.41 1339.66,1312.65 1341.07,1324.8C1341.48,1328.35 1338.7,1339.6 1334.9,1340.25C1321.05,1342.62 1322.88,1346.32 1318.21,1362.36C1307.41,1399.43 1297.21,1399.89 1294.52,1407.61C1291.81,1415.38 1287.33,1411.93 1283.78,1419.36C1277.37,1421.04 1277.18,1421.49 1277.57,1421.85C1278.63,1422.83 1274.38,1390.04 1259.68,1374.43C1251.44,1365.68 1257.26,1363.18 1252.41,1354.31C1242.27,1335.76 1240.06,1336.9 1238.37,1328.48C1233.23,1302.92 1227.35,1305.37 1225.85,1299.4C1223.7,1290.8 1218.57,1292.88 1218.14,1284.06C1216.9,1258.49 1186.18,1261.17 1185.05,1264.09C1182.43,1270.87 1176.5,1272.51 1176.26,1279C1176.03,1285.33 1161.71,1327.98 1162.24,1330.94C1163.01,1335.31 1157.76,1338.65 1158.25,1341.76C1163.91,1377.15 1135.52,1406.59 1150.43,1403.72C1153.74,1403.08 1153.74,1397.69 1158.37,1370.7C1159.61,1372.4 1172.7,1390.5 1155.52,1396.87C1158.08,1410.02 1149.95,1409.79 1149.85,1409.91C1148.2,1412.09 1127.54,1428.69 1138.18,1431.96C1140.58,1432.7 1132.23,1438.42 1134.39,1442.31C1140.77,1453.83 1131.05,1454.22 1131.56,1465.38C1131.67,1467.84 1131.83,1471.21 1126.05,1495.6C1123.52,1506.28 1123.49,1519.2 1118.84,1517.54Z" style="fill:white;"/>
            </g>
            <path d="M1613.67,1278.5C1614.96,1277.61 1652.57,1273.17 1655.1,1269.64C1658.33,1265.11 1659.47,1267.11 1664.5,1264.77C1671.38,1261.55 1673.29,1265.81 1674.38,1266.3C1674.97,1266.58 1680.79,1269.22 1682.2,1268.66C1686.16,1267.11 1694.9,1261.38 1696.4,1272.14C1697.52,1280.16 1685.3,1275.95 1687.5,1285.81C1689.11,1293.02 1688.95,1295.45 1687.5,1295.77C1672.29,1299.19 1679.75,1312.97 1676.46,1313.95C1668.1,1316.44 1670.64,1319.78 1663.5,1324.88C1656.72,1329.72 1650.79,1347.37 1650.07,1349.49C1645.83,1362.11 1648.98,1362.6 1645.41,1375.23L1647.2,1377.36L1643.22,1377.31C1641.3,1378.78 1639.96,1379.95 1639.7,1381.84C1638.44,1390.88 1643.28,1388.86 1643.95,1389.04C1639.97,1392.13 1639.91,1393.62 1639.89,1393.66C1639.27,1393.91 1632.74,1396.55 1633.51,1399.1C1633.86,1400.25 1634.7,1399.8 1642.63,1395.91C1643.18,1398.88 1642.72,1398.89 1640.28,1400.71C1639.17,1401.54 1636.54,1405.62 1636.25,1406.07C1629.66,1408.44 1629.58,1409.16 1628.77,1416.09C1638.32,1406.61 1636.52,1404.94 1637.64,1404.62C1644.67,1402.64 1636.16,1412.31 1638.67,1422.71C1641.37,1433.87 1635.69,1434.39 1639.49,1445.24C1643.02,1455.31 1619.12,1463.25 1634.7,1474.56C1628.53,1492.49 1626.83,1491.95 1625.01,1504.93C1624.46,1508.82 1625.18,1536.3 1627.32,1536.37C1681.64,1537.96 1671.91,1540.28 1685.54,1543.05C1685.86,1548.52 1687.91,1550.88 1675.82,1575C1657.73,1572.23 1681.75,1576.72 1657.48,1577.34C1642.32,1577.72 1612.21,1566.22 1583.04,1575.36C1562.76,1581.72 1554.32,1574.82 1549.43,1581.58C1544.31,1588.66 1543.1,1578.36 1537.5,1579.59C1520.35,1583.38 1532.98,1569.94 1528.1,1563.92C1517.2,1550.49 1525.17,1539.59 1535.54,1533.21L1540.52,1532.49L1542.21,1528.72L1548.58,1528.28C1556.47,1507.43 1556.28,1507.38 1557.03,1505.6C1562.83,1491.83 1564.52,1492.29 1565.11,1477.34C1566.87,1433.15 1573.6,1419.27 1573.6,1401.79C1573.6,1357.78 1586.81,1352.91 1585.27,1338.81C1584.27,1329.65 1583.31,1329.62 1586.09,1320.91C1587.94,1315.11 1585.95,1314.9 1588.02,1308.16C1588.95,1305.12 1586.94,1305.12 1570.89,1305.67C1555.32,1306.21 1549.64,1316 1533.27,1294.97C1530.76,1291.74 1530.68,1292.09 1527.06,1289.98C1524.94,1288.74 1520.16,1279.81 1520.56,1278.32C1522.13,1272.51 1527.85,1271.75 1528.15,1271.39C1529.58,1269.7 1565.82,1277.96 1567.16,1278.7C1576.77,1283.98 1609.49,1280.76 1613.67,1278.5ZM1595.17,1433.16C1593.54,1441.06 1593.1,1440.81 1592.57,1448.22C1606.45,1422.39 1602.08,1417.96 1599.3,1415.2C1597.24,1427.77 1595.7,1431.79 1595.17,1433.16ZM1594.45,1466.2C1595.47,1471.88 1595.99,1471.53 1599.17,1476.24C1599.66,1462.42 1600.69,1461.97 1598.57,1459.81C1595.01,1465.98 1594.6,1465.61 1594.45,1466.2ZM1579.1,1445.5L1578.33,1437.59C1572.21,1441.27 1572.8,1445.21 1573.39,1462.43C1573.42,1463.37 1579.21,1468.73 1581.79,1454.14C1582.62,1449.48 1580.73,1449.95 1579.1,1445.5Z" style="fill:white;"/>
            <path d="M1760.67,1523.08C1760.39,1536.56 1757.07,1536.9 1761.88,1549.42C1767.92,1565.11 1761.96,1566.39 1769.14,1585.7C1770.11,1588.32 1778.17,1586.71 1784.21,1582.74C1786.32,1584.08 1789.67,1587.8 1792.56,1587.63C1793.68,1587.57 1793.51,1587.58 1806.53,1588.78C1809.02,1575.51 1824.21,1577.5 1815.82,1566.9C1823.62,1552.97 1835.92,1535.72 1838.68,1509.79C1839.63,1500.91 1834.87,1498.15 1839.16,1480.83C1849.45,1439.3 1850.59,1439.75 1854.01,1427.93C1874.11,1448.37 1884.93,1457.42 1886.06,1465.84C1887.24,1474.59 1906.77,1493.06 1908.93,1495.1C1912.91,1498.86 1921.07,1504.37 1917.98,1510.22C1937.04,1532.89 1938.52,1531.23 1959.78,1552.05C1978.4,1550.98 1978.74,1558.66 1996.55,1552.76C1997.62,1552.41 2031.88,1553.4 2024.47,1540.53C2019.41,1531.76 2022.39,1530.37 2016.14,1522.35C2024.21,1503.7 2020.55,1502.88 2024.32,1449.85C2024.49,1447.4 2025.19,1437.58 2029.65,1419.68C2035.08,1397.92 2034.51,1397.93 2041.48,1376.75C2043.91,1369.34 2041.68,1328.39 2062.41,1303.17C2066.67,1297.98 2066.78,1285.02 2063.76,1283.21C2060.91,1281.5 2081.64,1260.76 2082.42,1258.38C2084.11,1253.16 2085.34,1246.81 2085.53,1245.79C2080.8,1243.91 2080.5,1242.55 2076.51,1245.48C2077.01,1239.69 2078.11,1236.64 2072.46,1237.9C2066.37,1239.26 2063.82,1243.63 2060.48,1235.65C2058.29,1230.44 2050.97,1237.51 2057.87,1253.06C2061.33,1260.87 2047.39,1245.15 2054.11,1236.61C2055.93,1234.29 2050.18,1231.31 2047.77,1231.67C2045.52,1232.01 2049.02,1234.47 2046.81,1235.2C2046.3,1235.36 2043.42,1231.73 2043.15,1231.39C2042.67,1222.02 2039.94,1222.95 2032.11,1222.22C2023.52,1218.84 2022.27,1219.01 2010.31,1230.19C1999.55,1240.24 1970.11,1327.99 2001.08,1263.56C2003.45,1258.61 2003.11,1258.59 2005.47,1253.77C2006.77,1251.12 2007.13,1251.65 2011.05,1248.85C2008.1,1263.37 2009.7,1264.16 2005.37,1268.77C1999.49,1275.03 1998.09,1285.49 1997.4,1287.51C1995.59,1292.82 1995.33,1292.55 1990.83,1296.23C1987.08,1282.83 1986.39,1317.43 1986.57,1317.6C1987.11,1318.14 1988.03,1318.36 1992.12,1309.83C1993.13,1320.43 1989.4,1320.03 1983.88,1331.52C1981.03,1337.45 1964.96,1339.82 1971.21,1355.54C1972.6,1359.03 1964.28,1372.16 1963.45,1373.48C1960.3,1378.45 1962.85,1388.32 1960.16,1395.79C1953.46,1414.41 1958.46,1416.03 1952.94,1423.29C1946.25,1432.1 1961.69,1435.93 1965.09,1436.26C1962.4,1441.77 1961.65,1441.24 1959.16,1446.76C1956.76,1452.05 1956.05,1442.03 1956.02,1441.54C1955.95,1467.85 1954.42,1469.22 1949.42,1469.65C1939.41,1446.65 1931,1451.31 1923.69,1427.5C1916.27,1403.34 1911.28,1405.08 1906.41,1380.25C1905.91,1377.7 1905.2,1378.22 1889.17,1352.8C1878.7,1336.21 1875.12,1337.12 1871.76,1334.43C1871.26,1332.42 1872.05,1328.62 1867.67,1317.99C1859.88,1299.11 1857.58,1300.61 1840.94,1288.88C1827.71,1279.55 1807.53,1281.78 1785.5,1278.87C1787.18,1285.11 1786.76,1290.64 1796.09,1298.16C1790.44,1312.75 1789.66,1312.43 1777.9,1322.56C1775.64,1324.51 1775.74,1324.52 1772.91,1324.67C1772.06,1324.71 1772.13,1324.7 1762.35,1325.11C1769.44,1332.77 1762.37,1350.19 1775.3,1353.48C1774.74,1354.76 1774.64,1361.15 1767.66,1369.16C1758.62,1379.54 1767.82,1383.88 1767.03,1388.91C1762.99,1414.87 1766.7,1415.64 1757.14,1440.24C1755.36,1444.81 1758.1,1512.48 1753.58,1526C1749.02,1539.67 1753.49,1539.67 1759.89,1560.43C1764.3,1574.72 1762.39,1576.68 1765.34,1585.22C1768.29,1593.76 1760.94,1510.62 1760.67,1523.08Z" style="fill:white;"/>
            <g transform="matrix(1.03553,0,0,1.25137,-74.3906,-393.117)">
                <path d="M2164.95,1329.75C2166.25,1328.14 2166.45,1328.63 2168.85,1327.79C2170.32,1324.14 2174.15,1307.5 2191.12,1306.03C2202.64,1305.03 2211.76,1315.33 2213.12,1316.68C2238.59,1315.64 2238.56,1315.99 2263.18,1321.96C2266.48,1322.76 2291.78,1347.94 2293.88,1353.33C2297.37,1362.33 2307.55,1368.06 2311.06,1385.04C2311.18,1385.62 2315.57,1397.17 2316.98,1425.47C2318.37,1453.34 2304.18,1504.89 2287.96,1517.48C2278.1,1525.13 2264.64,1558.26 2237.77,1562.97C2232.31,1563.92 2203.21,1563.92 2200.21,1563.92C2180.81,1563.92 2181.87,1559.76 2173.2,1556.18C2161.24,1551.25 2160.6,1553.29 2145.55,1545.59C2144.42,1540.4 2145.41,1537.34 2140.37,1539.17C2133.4,1541.7 2122.81,1539.03 2119.92,1538.64C2110.49,1501.5 2090.26,1505.92 2094.56,1489.78C2096.78,1481.44 2092.03,1453.14 2101.33,1454.53C2102.85,1454.75 2103.17,1458 2105.24,1455.19C2107.12,1452.63 2116.57,1443.32 2106.99,1444.92C2103.03,1445.58 2102.12,1451.61 2101.69,1447.6C2101.3,1444.02 2103.99,1434.47 2106.46,1434.13C2110.36,1433.59 2111.11,1435.38 2113.38,1432.15C2116.53,1427.68 2117.84,1436.79 2117.92,1437.34L2121.85,1431.69C2122.22,1437.19 2114.49,1448.79 2121.07,1445.53C2129.43,1441.38 2127.17,1431.22 2126.89,1429.92C2136.05,1424.83 2132.86,1422.32 2137.8,1411.78C2137.98,1411.39 2139.22,1408.19 2132.7,1410C2131.51,1410.33 2119.3,1444.34 2120.13,1424.66C2119.5,1424.85 2101.25,1430.26 2112.04,1423.52C2113.07,1422.88 2121.82,1417.42 2120.41,1410.81C2118.57,1402.2 2125.47,1404 2128.05,1403.85C2138.09,1389.51 2137.6,1387.78 2137.18,1386.25C2135.06,1378.68 2136.05,1389.96 2129.45,1394.44C2121.3,1399.96 2122.18,1400.7 2115.05,1407.47C2114.94,1393.65 2128.07,1390.6 2129.85,1390.18C2130.95,1376.71 2133.09,1376.13 2138.35,1368.89C2147.4,1356.42 2141.23,1374.81 2141.05,1375.34C2152.44,1374.59 2143.09,1361.71 2149.04,1358.76C2151.36,1357.61 2152.57,1346.09 2159.69,1342.93C2172.32,1337.31 2165.74,1330.56 2164.95,1329.75ZM2212.52,1348.12C2207,1349.71 2208.15,1351.17 2204.94,1355.81C2202.88,1358.78 2194.04,1360.12 2193.08,1367.76C2192.04,1376.06 2196.33,1376.97 2191.15,1384.12C2186.36,1390.73 2192.09,1393.31 2190.99,1394.18C2185.48,1398.59 2183.31,1397.08 2182.08,1404.23C2181.07,1410.1 2180.14,1409.88 2180.89,1415.92C2181.58,1421.52 2161.99,1452.97 2167.78,1467.18C2169.99,1472.64 2164.88,1481.35 2167.92,1491.09C2169.81,1497.15 2163.25,1498.85 2167.66,1509.27C2170.63,1516.29 2165.8,1521.32 2173.58,1520.8C2181.42,1520.27 2180.64,1525.15 2194.57,1524.82C2205.3,1524.57 2202.94,1519.43 2216.56,1508C2224.65,1501.21 2222.33,1498.44 2232.05,1494.09C2237.01,1482.64 2247.59,1476.13 2247.07,1461.02C2245.84,1424.66 2252.46,1412.13 2249.97,1403.33C2245.11,1386.22 2253.76,1382.24 2240.09,1370.82C2239.77,1370.56 2239.71,1362.84 2236.8,1360.69C2231.67,1356.92 2231.58,1357.37 2225.47,1355.5C2223.79,1351.92 2223.93,1352.07 2222.02,1348.45C2217.13,1348.23 2217.33,1347.67 2212.52,1348.12Z" style="fill:white;"/>
            </g>
            <g transform="matrix(1,0,0,1,-10,-40)">
                <path d="M1605.55,1195.61C1596.35,1202.26 1564.21,1259.38 1648.3,1248.83C1667.06,1246.47 1680.96,1193.85 1659.38,1184.27C1637.14,1174.39 1638.35,1169.07 1613.84,1170.03C1614.91,1171.49 1619.61,1181.83 1627.98,1184.32C1629.23,1184.69 1617.35,1181.15 1611.76,1181.73C1617.01,1188.46 1616.86,1188.24 1622.52,1194.75L1617.98,1194.26C1615.28,1213.14 1611.67,1190.07 1608.25,1189.45C1603.9,1188.66 1605.48,1190.93 1605.55,1195.61Z" style="fill:white;"/>
            </g>
        </g>
    </g>
</svg>
