<?xml version="1.0" encoding="UTF-8" standalone="no"?>
<!DOCTYPE svg PUBLIC "-//W3C//DTD SVG 1.1//EN" "http://www.w3.org/Graphics/SVG/1.1/DTD/svg11.dtd">
<svg width="100%" height="100%" viewBox="0 0 1253 279" version="1.1" xmlns="http://www.w3.org/2000/svg" xmlns:xlink="http://www.w3.org/1999/xlink" xml:space="preserve" xmlns:serif="http://www.serif.com/" style="fill-rule:evenodd;clip-rule:evenodd;stroke-linejoin:round;stroke-miterlimit:2;">
    <g transform="matrix(1,0,0,1,-472.787,-2024.3)">
        <g transform="matrix(1,0,0,1,-398.71,-237.411)">
            <path d="M914.829,2393.18C911.395,2390.53 905.528,2383.81 905.772,2380.69C906.73,2368.41 909.114,2368.93 909.698,2356.81C914.738,2341.69 913.168,2340.7 918.855,2335.72C919.753,2346.93 908.747,2347.12 915.273,2355.25C915.68,2355.75 916.214,2355.72 916.826,2355.29C919.031,2348.7 922.347,2339.97 927.265,2327.58C925.889,2326.97 922.717,2326.27 926.718,2323.11C929.664,2320.79 931.136,2314.56 936.05,2306.63C939.585,2299.79 945.619,2290.61 952.352,2291.34C954.525,2291.58 956.639,2291.8 958.697,2292.01C960.301,2291.58 961.608,2291.74 962.638,2292.4C1009.5,2296.93 1025.44,2294.84 1034.29,2310.92C1036.47,2314.89 1048.25,2316.94 1047.4,2321.3C1044.11,2338.18 1039.05,2336.49 1022.09,2333.76L1020.47,2335.64C1002.42,2333.29 1002.56,2333.86 984.231,2333.86C979.192,2334.95 977.049,2338.76 974.422,2338.43C965.416,2337.32 961.805,2365.78 961.809,2365.79C966.486,2377.94 966.611,2379.22 979.311,2381.77C1004.94,2386.92 1004.32,2388.75 1026.8,2401.82C1040.19,2409.59 1048.96,2426.32 1044.09,2429.91C1039.77,2433.09 1042.5,2434.26 1041.56,2439.61C1039.94,2448.88 1039.12,2448.73 1040.69,2457.96C1043.32,2446.75 1043.91,2446.99 1044.09,2435.38C1049.26,2433.28 1049.1,2432.04 1049.33,2432.46C1052.83,2438.91 1048.62,2443 1048.31,2446.93C1047.68,2454.91 1046.44,2454.38 1044.26,2462.16C1038.3,2483.49 1035.31,2481.98 1018.42,2496.18C1010.82,2502.57 1015.09,2506.42 1006.3,2511.4C984.73,2523.6 981.223,2524.04 977.736,2523.82C945.84,2521.85 945.577,2524.93 932.252,2520.71C895.531,2509.08 895.96,2507.74 892.638,2507.34C891.336,2507.19 880.986,2505.96 876.781,2503.2C862.715,2493.97 880.992,2491.29 882.705,2496.23C884.976,2502.78 891.807,2502.41 891.881,2502.44L891.484,2499.5C886.175,2498.2 885.975,2498.58 882.46,2494.56C881.723,2493.72 881.351,2492.01 877.582,2490.94C871.374,2489.19 866.994,2478.03 881.569,2480.8C880.735,2480.27 874.789,2476.46 875.698,2469.9C876.264,2465.81 878.634,2468.15 930.453,2477.48C938.686,2478.97 979.292,2475.46 982.799,2472.17C987.194,2468.06 996.194,2441.28 989.58,2426.19C987.483,2425.69 972.193,2422.01 963.678,2418.7C943.942,2411.03 921.208,2412.01 914.829,2393.18Z" style="fill:white;"/>
        </g>
        <g transform="matrix(1.18,0,0,1.09953,-585.387,-476.444)">
            <path d="M1113.03,2346.7C1113.91,2339.62 1116.52,2341.42 1126.19,2339.12C1114.93,2324.6 1130.73,2331.3 1133.6,2330.89C1135.82,2330.56 1130.04,2326.72 1131.31,2325.99C1138.96,2321.53 1142.05,2327.83 1151.55,2329.32C1176.35,2333.22 1175.2,2336.73 1198.97,2344.61C1211.59,2364.99 1203.97,2368.06 1215.61,2389.26C1231,2417.31 1204.71,2469.9 1200.17,2475.68C1197.94,2478.51 1178.64,2479.34 1173.97,2489.61C1165.08,2491.35 1163.83,2489.4 1158.19,2496.4C1121.23,2500.07 1120.36,2498.25 1102.82,2490.37C1103.35,2490.03 1106.32,2491.56 1104.82,2487.97C1101.65,2480.46 1084.15,2491.57 1086.08,2476.37C1086.38,2473.95 1079.94,2477.46 1069.6,2450.79C1067.73,2445.97 1066.84,2427.66 1071.95,2425.55C1078.62,2422.8 1083.2,2425.14 1080.87,2418.88C1079.55,2415.32 1077.91,2415.36 1081.1,2403.06L1076.13,2405.05C1075.84,2408.81 1075.94,2408.68 1074.72,2412.14C1073.76,2399.72 1078.77,2399.74 1090.04,2395.84C1099.98,2365.57 1089.19,2355.83 1111,2350.51L1113.03,2346.7ZM1138.55,2351.95C1146.15,2354.31 1141.91,2357.2 1141.78,2357.47C1142.72,2358.26 1144.5,2357.01 1145.44,2357.8C1150.82,2362.35 1139.33,2359.63 1136.05,2370.55C1132.87,2381.17 1131.91,2380.64 1129.11,2391.47C1127.43,2397.94 1130.32,2398.24 1127.82,2404.65C1120.56,2423.26 1123.37,2423.73 1119.5,2448.9C1116.68,2467.23 1127.99,2476.25 1129.11,2476.34C1146.46,2477.66 1147.47,2478.86 1155.29,2471.66C1158.45,2468.75 1173.39,2468.98 1175.09,2451.79C1177.82,2424.27 1180.73,2424.86 1182.49,2411.37C1182.92,2408.08 1179.49,2390.93 1179.14,2389.17C1178.59,2386.39 1170.16,2365.13 1164.82,2361.73C1149.05,2351.68 1147.83,2354.41 1146.56,2353.43C1142.13,2349.99 1140.42,2351.11 1138.55,2351.95Z" style="fill:white;"/>
        </g>
        <g transform="matrix(1,0,0,1,-385.631,-221.508)">
            <path d="M1256.62,2467.67C1254.36,2451.34 1257.62,2451.51 1257.48,2435.07C1257.36,2420.52 1260.19,2408.01 1262.02,2413.05C1264.58,2420.13 1259.46,2379.17 1263.4,2373.39C1272.43,2360.18 1261.83,2348.03 1267.03,2334.29C1270.99,2323.82 1266.02,2322.62 1271.48,2312.95C1275.47,2305.88 1268.28,2287.96 1280.65,2286.93C1283.57,2281.73 1283.83,2280.42 1285.71,2281.35C1287.54,2282.27 1284.41,2289.72 1287.71,2285.76C1291.05,2281.77 1291.5,2273.28 1314.48,2284.57C1317.26,2285.93 1327.2,2307.92 1321.34,2314.4C1316.64,2319.61 1323.35,2300.71 1318.82,2305.91C1312.49,2313.2 1322.27,2317.66 1321.94,2318.4C1320.06,2322.66 1318.23,2316.73 1318.13,2316.41C1315.97,2320.3 1314.5,2320.59 1317.15,2323.98C1317.81,2324.83 1310.82,2323.41 1310.01,2328.61C1309.93,2329.11 1312.27,2334.26 1315.83,2326.1L1318.74,2325.9C1321.44,2316.28 1325.28,2324.36 1324.71,2325.83C1320.99,2335.58 1314.85,2333.13 1313.9,2332.74C1312.18,2332.06 1306.73,2339.46 1316.07,2337.42C1330.85,2334.19 1314.49,2345.95 1316.74,2380.39C1317.26,2388.28 1315.28,2387.84 1313.61,2395.45C1310.52,2409.55 1314.31,2409.8 1311.33,2424.14C1307.53,2421.88 1308.61,2421.17 1308.93,2419.05C1301.74,2428.05 1307.56,2428.83 1308.12,2428.34C1315.43,2421.97 1310.88,2431.36 1310.52,2440.91C1309.85,2459.03 1314.14,2465.55 1305.24,2463.13C1303.52,2466.96 1297.67,2472.23 1302.21,2473.81C1337.75,2486.21 1361.69,2468.11 1363.92,2468.09C1376.11,2467.97 1420.38,2465.06 1403.08,2486.55C1396.29,2488.14 1339.21,2507.01 1335.63,2509.86C1334.44,2510.8 1333.88,2508.69 1316.97,2513.5C1313.63,2514.45 1315.64,2515.81 1315.27,2516.45C1303.52,2519.13 1303.49,2523.08 1297.19,2519.3C1290.01,2514.99 1296.8,2491.65 1291.76,2506.62C1291.48,2507.45 1291.65,2507.43 1291.24,2507.63C1290.99,2507.76 1290.99,2507.69 1287.84,2508.43C1287.14,2509.18 1289.36,2511.81 1284.04,2512.47C1268.92,2514.35 1269.73,2509.84 1253.62,2504.47C1252.16,2503.98 1240.84,2500.21 1245.87,2486.87C1248.27,2480.49 1240.79,2473.73 1249.98,2473.09C1252.01,2468.84 1252.3,2469.14 1256.62,2467.67Z" style="fill:white;"/>
        </g>
        <g transform="matrix(1,0,0,1,-409.214,-229.655)">
            <path d="M1453.57,2353.01C1452.01,2323.88 1436.21,2310.82 1431.32,2310.22C1407.54,2307.27 1405.8,2305.96 1399.62,2314.38C1409.37,2332.63 1415.44,2351.66 1416.26,2356.99C1420.16,2382.51 1442.77,2437.06 1425.39,2418.36C1427.19,2427.57 1432.65,2424.32 1435.97,2433.07C1439.38,2442.05 1436.9,2443.76 1445,2449.22C1453.77,2455.14 1451.19,2466.66 1447.92,2463.2C1438.61,2453.36 1446.35,2469.07 1453.34,2478.18C1466.04,2494.76 1474.94,2494.83 1476.84,2507.69C1478.07,2516.02 1482.92,2511.71 1485.64,2513.31C1493.27,2517.83 1489.44,2510.83 1489.8,2509.36C1493.71,2512.82 1493.13,2514.78 1498.4,2513.59C1504.37,2512.25 1503.83,2514.37 1508.4,2518.64C1508.78,2518.99 1517.14,2526.8 1514.81,2518.66C1514.14,2516.31 1509.5,2509.82 1518.82,2511.65C1521.31,2512.14 1524.75,2497.1 1531.98,2486.92C1537.93,2478.54 1535.46,2477 1542.95,2469.84C1546.06,2466.87 1546.91,2436.22 1572.62,2399.39C1573.89,2397.56 1583.31,2364.35 1583.43,2356.89C1583.81,2334.12 1587.39,2334.87 1593.3,2312.94C1593.68,2311.55 1596.23,2313.11 1602.09,2297.23C1609.24,2277.82 1591.6,2279.52 1589.9,2279.68C1577.47,2280.89 1575.92,2279.54 1561.41,2284.98C1557.26,2286.54 1558.93,2277.76 1553.42,2280.84C1552.84,2281.16 1553.22,2281.41 1550.68,2288.63C1543.43,2290.98 1540.03,2289.86 1541.56,2297.46C1542.89,2304.1 1546.64,2298.97 1546.39,2299.3C1542.31,2304.89 1543.69,2309.26 1537.33,2306.35C1536.94,2317.83 1539.99,2318.51 1533.89,2328.23C1532.8,2329.96 1534.86,2330.55 1527.42,2352.95C1525.31,2359.28 1523.12,2358.65 1523.51,2365.26C1523.87,2371.39 1517.21,2369.8 1519.36,2373.61C1522.72,2379.57 1523.82,2380.71 1518.67,2385.41C1516.4,2387.48 1514.55,2417.43 1503.89,2426.04C1495.93,2432.46 1499.44,2454.04 1489.5,2447.92C1489.3,2447.8 1476.47,2425.89 1476.33,2425.55C1475.07,2422.6 1473.02,2405.43 1471.91,2402.34C1465.48,2384.48 1462.88,2385.43 1459.79,2366.62C1459.29,2363.54 1455.32,2360.53 1453.57,2353.01Z" style="fill:white;"/>
        </g>
        <g transform="matrix(1,0,0,1,-415.15,-212.397)">
            <path d="M1635.39,2400.89C1631.98,2402.01 1625.53,2420.42 1634,2421.99C1636.67,2422.49 1638.05,2403.34 1641.86,2410.96C1645.72,2418.68 1634.58,2426.98 1634.18,2428.17C1630.47,2439.12 1627.7,2425.07 1627.6,2424.69C1621.63,2432.89 1625.23,2433.72 1631.52,2441.69C1628.85,2442.86 1627.92,2445.14 1623.83,2440.25C1618.08,2451.2 1623.08,2467.51 1618.09,2470.85C1617.09,2471.53 1609.46,2476.64 1621.76,2485.44C1637.9,2497 1640.79,2522.34 1651.35,2505.18C1652.78,2502.87 1658.1,2502.68 1705.74,2502.68C1708.64,2502.68 1733.98,2505.01 1766.87,2503.02C1777.14,2502.4 1782.16,2503.5 1791.56,2489.22C1807.11,2465.56 1674.16,2478.56 1664.1,2477.3C1665.12,2473.81 1665.71,2474.1 1666.08,2470.51C1667.81,2454.05 1675.36,2454.5 1678.21,2442.87C1678.57,2441.41 1679.91,2435.93 1687.5,2426.45C1689.58,2423.85 1703.57,2421.99 1712.04,2422.63C1714.13,2422.79 1713.82,2421.02 1737.75,2417.47C1768.05,2412.98 1768.65,2412.75 1769.58,2410.31C1775.68,2394.4 1762.97,2394.73 1752.42,2391.53C1751.58,2391.28 1750.96,2391.09 1742.23,2395.44L1739.87,2392.89C1739.77,2390.74 1740.95,2389.21 1738.85,2390.04C1732.52,2392.53 1693.29,2395.62 1693.94,2393.13C1700.03,2369.59 1701.01,2352.4 1712.07,2344.62C1723.3,2336.72 1720.87,2328.75 1731.93,2332.61C1748.18,2338.27 1748.39,2336.36 1756.14,2335.06C1769.09,2332.89 1770.32,2338.98 1781.25,2331.88C1783.06,2330.71 1807.44,2335.43 1794.52,2317.87C1784.2,2303.84 1781.96,2306.8 1768.32,2304.88C1761.51,2303.92 1677.48,2306.53 1670.73,2308.11C1665.31,2309.38 1665.55,2309.45 1659.97,2310.06C1657.99,2310.28 1658.26,2309.74 1657.54,2307.88C1655.47,2308.2 1634.25,2308.15 1636.88,2314.5C1637.64,2316.32 1658.67,2319.83 1645.22,2318.85C1638.5,2318.37 1641.59,2321.77 1641.93,2321.88C1645.34,2322.96 1643.73,2324.25 1640.99,2326.72C1647.08,2328 1646.32,2324.65 1652.35,2323.65C1651.24,2327.35 1651.28,2327.09 1649.35,2330.54C1655.38,2332.51 1654.66,2334 1661,2335.46C1656.26,2345.22 1654.3,2344.37 1653.85,2347.31C1652.43,2356.73 1647.73,2366.09 1654.87,2359.66C1664.71,2350.81 1637.82,2389.98 1635.39,2400.89Z" style="fill:white;"/>
        </g>
        <g transform="matrix(0.996957,-0.0779553,0.0779553,0.996957,-603.56,-56.1379)">
            <path d="M1837.76,2363.13C1838.31,2358.24 1842.37,2359.2 1851.39,2303.14C1852.35,2297.18 1851.92,2297.18 1854.59,2291.7C1869.04,2289.2 1869.49,2289.28 1871.14,2291.4C1875.96,2297.57 1878.29,2291.37 1881.78,2289.79C1883.32,2289.09 1883.22,2290.29 1902.88,2290.77C1903.47,2298.82 1899.8,2314.43 1898.83,2323.33C1910.42,2320.34 1909.06,2316.51 1921.1,2315.3C1929.87,2314.42 1932.85,2304.83 1945.74,2313.06C1949.95,2315.75 1950.02,2315.2 1954.85,2316.9C1956.44,2317.46 1953.38,2320.56 1969.14,2332.37C1983.78,2343.33 1976.15,2348.33 1988.64,2368.03C1989.67,2369.65 2004.31,2405.31 2004.78,2408.33C2006.92,2422.01 1994.64,2417.04 1990.02,2432.78C1978.92,2470.57 1979.49,2471.23 1976.54,2472.88C1948.93,2488.36 1959.1,2503.02 1934.11,2509.25C1923.3,2511.95 1923.33,2512.53 1912.24,2510.98C1911.14,2507.24 1911.25,2507.34 1910.46,2505.34C1876.37,2508.82 1874.62,2495.53 1855.03,2506.77C1854.99,2506.79 1848.14,2513.04 1845.6,2509.37C1845.42,2509.12 1829.13,2506.39 1820.16,2497.42C1814.58,2491.85 1824.35,2461.2 1824.47,2455.39C1825,2431.11 1830.11,2431.9 1832.11,2407.61C1833.35,2392.55 1839.12,2392.05 1836.61,2372.52C1836.51,2371.77 1836.39,2370.82 1837.76,2363.13ZM1883.92,2396.04C1879.79,2404.58 1882.33,2424.91 1884.13,2438.81C1885.24,2447.36 1875.38,2457.15 1876.51,2461.37C1877.86,2466.42 1877.12,2466.3 1876.59,2471.56C1876.51,2472.43 1875.84,2479.04 1883.9,2479.69C1924.13,2482.92 1930.07,2465.21 1935.35,2443.9C1939.91,2425.47 1969.3,2427.23 1949.17,2400.83C1945,2395.35 1946.2,2394.93 1946.02,2388.11C1945.88,2382.87 1926.07,2340.01 1919.56,2347.95C1916.4,2351.81 1899.3,2358.75 1897.45,2359.5C1888.4,2363.18 1884.65,2392.54 1883.92,2396.04Z" style="fill:white;"/>
        </g>
        <g transform="matrix(1,0,0,1,-416.257,-223.037)">
            <path d="M2066.95,2469.85C2062.56,2467.86 2047.57,2466.13 2045.56,2466.73C2041.63,2467.9 2042.94,2469.1 2040.33,2475.37L2042.56,2478.7C2030.21,2518.76 2044.77,2517.16 2047.74,2516.46C2048.14,2516.37 2062.7,2523.41 2064.59,2522.26C2065.87,2521.48 2066.98,2517.18 2067.1,2516.7C2071.03,2518.92 2069.61,2521.84 2074.27,2521.33C2082.47,2520.45 2083.44,2521.15 2087.56,2514.1C2090.89,2508.37 2093.45,2509.63 2093.94,2502.6C2094.37,2496.51 2091.61,2498.41 2090.73,2497.99L2089.68,2493.72C2089.43,2493.96 2083.07,2500.24 2085.54,2494.9C2087.44,2490.81 2091.05,2489.87 2091.66,2489.6C2091.77,2488.5 2092.29,2483.42 2083.93,2478.14C2075.63,2472.9 2076.65,2470.46 2066.95,2469.85Z" style="fill:white;"/>
        </g>
        <g transform="matrix(1,0,0,1,-416.257,-223.037)">
            <path d="M2099.42,2247.34C2084.81,2247.64 2091.03,2255.5 2083.6,2268.08C2078.66,2276.44 2084.8,2278.13 2075.46,2305.89C2078.82,2306.04 2078.65,2305.83 2081.35,2304.22C2081.1,2306.5 2081.84,2307.34 2077.6,2308.72C2072.29,2310.46 2072.49,2310.6 2067.31,2312.29C2068.52,2319.98 2067.94,2325.61 2070,2321.06C2071.92,2316.8 2071.79,2322.1 2070.86,2322.82C2070.2,2323.33 2070.08,2322.61 2061.01,2326.36C2057.32,2356.42 2056.62,2361.35 2056.18,2364.39C2050.53,2356.33 2052.66,2367.85 2051.8,2373.81C2048.56,2396.14 2047.9,2395.89 2046.12,2418.46C2034.28,2415 2040.46,2431.93 2051.96,2433.31C2067.73,2435.21 2066.9,2437.82 2082.8,2441.47C2085.79,2442.16 2085.51,2443.08 2088.64,2442.54C2094.37,2441.57 2095.55,2447.91 2098.57,2443.08C2099.38,2441.78 2106.36,2430.63 2100.87,2423.96C2097.89,2420.34 2109.24,2387.06 2109.22,2386.99C2107.05,2377 2111.16,2377.71 2114.41,2367.91C2114.59,2367.36 2118.45,2366.53 2117.78,2363.45C2115.21,2351.64 2113.28,2351.64 2116.45,2339.8C2117.94,2334.19 2121.29,2335.83 2124.43,2323.65C2125.76,2318.53 2134.58,2303.51 2137.87,2282.23C2138.91,2275.49 2141.55,2275.44 2138.72,2269.28C2140.93,2259.85 2138.59,2259.67 2141.07,2250.42C2142.99,2243.27 2130.37,2254.56 2099.42,2247.34Z" style="fill:white;"/>
        </g>
    </g>
</svg>
